<?xml version="1.0" encoding="iso-8859-1"?>
<!-- Generator: Adobe Illustrator 19.0.0, SVG Export Plug-In . SVG Version: 6.00 Build 0)  -->
<svg version="1.1" id="Layer_1" xmlns="http://www.w3.org/2000/svg" xmlns:xlink="http://www.w3.org/1999/xlink" x="0px" y="0px"
	 viewBox="0 0 512.282 512.282" style="enable-background:new 0 0 512.282 512.282;" xml:space="preserve">
<g>
	<g>
		<g>
			<path d="M354.386,392.735H158.119c-2.356,0-4.267,1.91-4.267,4.267v89.6c0,4.713,3.82,8.533,8.533,8.533h25.6v8.533
				c0,4.713,3.82,8.533,8.533,8.533s8.533-3.82,8.533-8.533v-8.533h102.4v8.533c0,4.713,3.82,8.533,8.533,8.533
				s8.533-3.82,8.533-8.533v-8.533h25.6c4.713,0,8.533-3.82,8.533-8.533v-89.6C358.652,394.645,356.742,392.735,354.386,392.735z"/>
			<path d="M510.119,29.386c-4.538-18.344-21.697-30.699-40.533-29.184c-1.115,0.013-2.217,0.245-3.243,0.683l-204.8,85.333
				l-2.56,1.024c-41.899,17.067-62.891,25.6-79.189,63.915L86.439,431.391l-4.693-3.072c-3.914-2.626-9.215-1.582-11.841,2.332
				c-0.196,0.292-0.374,0.597-0.533,0.911l-14.677,29.44H17.319c-4.017-0.117-7.571,2.584-8.533,6.485l-8.533,34.133
				c-1.133,4.575,1.657,9.202,6.231,10.335c0.753,0.186,1.527,0.269,2.302,0.247h119.467c4.711,0.138,8.642-3.569,8.78-8.279
				c0.023-0.775-0.06-1.549-0.247-2.302l-8.533-34.133c-0.963-3.901-4.517-6.602-8.533-6.485h-11.776l2.389-4.693
				c1.928-3.851,0.684-8.536-2.901-10.923l-6.229-4.181l94.635-284.075c13.227-31.232,29.781-37.973,69.632-54.101l205.739-85.76
				c10.721-0.809,20.357,6.519,22.443,17.067c14.677,52.992-69.035,203.691-154.624,256c-4.095-5.697-8.979-10.783-14.507-15.104
				c-3.766-37.514-37.229-64.873-74.743-61.107c-32.31,3.243-57.864,28.797-61.107,61.107c-25.6,19.371-32.085,55.723-34.133,83.371
				h-0.683c-4.713,0-8.533,3.82-8.533,8.533s3.821,8.533,8.533,8.533h204.8c4.713,0,8.533-3.82,8.533-8.533s-3.82-8.533-8.533-8.533
				h-0.597c-0.399-18.297-3.92-36.392-10.411-53.504C434.002,252.106,527.783,93.386,510.119,29.386z M256.252,256.202
				c-16.37-0.383-32.666,2.309-48.043,7.936c9.84-26.51,39.307-40.023,65.817-30.183c13.975,5.187,24.996,16.208,30.183,30.183
				C288.86,258.522,272.593,255.83,256.252,256.202z"/>
		</g>
	</g>
</g>
<g>
</g>
<g>
</g>
<g>
</g>
<g>
</g>
<g>
</g>
<g>
</g>
<g>
</g>
<g>
</g>
<g>
</g>
<g>
</g>
<g>
</g>
<g>
</g>
<g>
</g>
<g>
</g>
<g>
</g>
</svg>
